<?xml version="1.0" encoding="UTF-8"?>
<svg width="26px" height="26px" viewBox="0 0 26 26" version="1.1" xmlns="http://www.w3.org/2000/svg" xmlns:xlink="http://www.w3.org/1999/xlink">
    <title>C63DC4C9-BA30-468B-BCC2-007E068BCCAB@0.0x</title>
    <g id="短信验证码登录" stroke="none" stroke-width="1" fill="none" fill-rule="evenodd">
        <g id="设备管理备份" transform="translate(-406, -26)">
            <g id="编组-15" transform="translate(390, 18)">
                <g id="9-icon/arrow-left" transform="translate(16, 8)">
                    <rect id="矩形" fill-opacity="0" fill="#D8D8D8" x="0" y="0" width="26" height="26"></rect>
                    <path d="M15.4626926,3.78301052 L7.05819227,12.4410108 C6.90598404,12.5932246 6.82987976,12.7752246 6.82987976,12.9870108 C6.82987976,13.1987971 6.90598404,13.3891984 7.05819227,13.5581984 L15.4626926,22.2161987 C15.6149063,22.3515612 15.7925676,22.4193237 15.9956926,22.4193237 C16.1988176,22.4193237 16.3764788,22.3432737 16.5286926,22.1910112 C16.6809063,22.0387487 16.7570051,21.8611362 16.7570051,21.6580112 C16.7570051,21.4548861 16.6809063,21.2772736 16.5286926,21.1250111 L8.60681732,13.0000108 L16.5286926,4.87501056 C16.6809063,4.72280168 16.7570051,4.54513555 16.7570051,4.34201054 C16.7570051,4.13888553 16.6809063,3.9612194 16.5286926,3.80901052 C16.3764788,3.65680229 16.1988176,3.58069801 15.9956926,3.58069801 C15.7925676,3.58069801 15.6149063,3.6484064 15.4626926,3.78382302 L15.4626926,3.78301052 Z" id="Union" fill="#000000" fill-rule="nonzero"></path>
                </g>
            </g>
        </g>
    </g>
</svg>